<svg xmlns="http://www.w3.org/2000/svg" viewBox="0 0 408.96 408.97"><defs><style>.cls-1{fill:#fff;}</style></defs><g id="Layer_2" data-name="Layer 2"><g id="fb"><path class="cls-1" d="M379,0H30A30,30,0,0,0,0,30V379a30,30,0,0,0,30,30H180.18c7.64,0,12.67-5.46,12.68-13.35,0-3.67,0-7.34,0-11q.06-66.54,0-133.07c0-8.51-4.74-13.24-13.45-13.32-12.24-.12-24.48,0-36.72,0h-5.24V203.81h44a11.48,11.48,0,0,0,11.48-11.48v-4c0-14.64,0-29.27,0-43.91.07-28.58,20.77-49.4,49.26-49.53,13.28-.06,26.57,0,40.18,0v34.35H243.27c-10.72,0-16,5.25-16,15.84q0,22.35,0,44.7c0,9.32,4.59,13.92,14,14l7.87,0h33.34v34.36h-8.87c-10.64,0-21.29,0-31.93,0-9.9,0-14.4,4.56-14.4,14.4q0,66,0,132v9.68c0,9.85,4.57,14.69,14.39,14.69H379a30,30,0,0,0,30-30c0-80.32,0-274.31,0-349A30,30,0,0,0,379,0Zm5.55,374.6a10,10,0,0,1-10,10H255.71c-1.3,0-2.6-.11-4.14-.18v-122h29.78c4.26,0,8.52.12,12.77,0,7.82-.29,12.69-5.07,12.74-12.91q.21-28.35,0-56.69c-.05-8.23-5.06-13-13.35-13.11-12.51-.08-25,0-37.53,0h-4.44V153.37h4.5c12.38,0,24.75,0,37.12,0,9.08,0,13.7-4.69,13.73-13.85q.08-27.34,0-54.69c0-9.32-4.71-13.94-14-13.95-17.7,0-35.4-.25-53.09.08-34.32.65-62.54,24.11-69.44,57.68a95.64,95.64,0,0,0-1.45,17.44c-.22,11-.06,22-.06,33.56H164.2c-12.24,0-24.48,0-36.72,0-9.53,0-14.24,4.71-14.26,14.24q-.06,27.15,0,54.29c0,9.52,4.72,14.19,14.29,14.22,13.56,0,27.12,0,41,0V384.61H31.29a10,10,0,0,1-10-10V31.38a10,10,0,0,1,10-10H374.51a10,10,0,0,1,10,10Z"/></g></g></svg>