<svg xmlns="http://www.w3.org/2000/svg" viewBox="0 0 404.57 332.32"><defs><style>.cls-1{fill:#fff;}</style></defs><g id="Layer_2" data-name="Layer 2"><g id="Layer_3" data-name="Layer 3"><path class="cls-1" d="M94.79,258.42c-13.45-6.09-24.28-13.81-33.26-24.05a95.18,95.18,0,0,1-16.84-27.79c-2.39-6-2.94-11.56.9-16C39.16,182,32.39,174.13,27,165.4a78.87,78.87,0,0,1-11.5-40.11c-.23-10,1.32-12.56,9.73-17-2.55-8-5.68-15.79-7.47-23.87-5-22.54-.78-43.79,10.63-63.64,4.89-8.5,15.4-8.94,22.05-1.07a210.83,210.83,0,0,0,41.4,37.74,212.59,212.59,0,0,0,91.86,35.83,14.07,14.07,0,0,0,1.95,0c.62-6.23.92-12.32,1.89-18.3,6.41-39.2,38.17-66.22,73.09-73,29.79-5.83,56.27,1.76,79.12,21.81,5.43,4.77,12.1,4.2,18.5,3.93,9.34-.39,17.78-3.91,25.89-8.41,7-3.88,14.32-2.29,18.2,3.79,3.3,5.17,2.21,10.86,1.24,16.28-3.68,20.36-14.42,36.93-28.81,51.24a16.08,16.08,0,0,0-5.2,12.38c-1.85,106.15-75.44,201-183.7,223.66C122.6,339.85,63,330.2,7.53,296.38c-7.62-4.65-9.7-12.63-5.12-19.29a12.13,12.13,0,0,1,12-5.53,147.73,147.73,0,0,0,70.76-9.1C88.12,261.34,91,260,94.79,258.42ZM67.57,295.68c2,.63,3.93,1.31,5.91,1.88a215.16,215.16,0,0,0,95.75,5.63c52.66-8.71,96.19-33.41,129.36-75.33,31.14-39.35,46.16-84.37,44.66-134.67-.21-6.86,1.88-11.9,7.51-16,8-5.88,14.08-13.65,19.21-22.13a8.14,8.14,0,0,0,.72-1.95c-8.88,0-17.61.36-26.3-.11-7-.39-14-1.88-19.32-7.23-15-15-33-21.91-54.24-19C247.81,30,230.12,41.45,218.91,62c-7.18,13.17-8,27.29-5.08,41.79,2.09,10.25-3.67,17.37-14.13,17A188,188,0,0,1,179.88,119q-76.82-11.25-133-64.92c-.83-.79-1.74-1.49-3-2.55a60,60,0,0,0-.48,28C46.94,95.71,55.8,108.32,69,118.22c3,2.26,6.13,5.53,7.21,9,2.63,8.36-3.78,16.19-12.62,16-6.15-.13-12.28-1-18.7-1.53a64.87,64.87,0,0,0,47.26,42.71c4.58,1,8.54,2.85,10.7,7.4,3.63,7.64,0,16-8.29,18.31-5.18,1.45-10.57,2.14-16.37,3.27,1,1.34,1.8,2.52,2.74,3.55,12.4,13.76,27.75,21.49,46.35,22.46,4.67.25,9,1.24,12,5.17,4.72,6.05,3.38,14.15-3.27,19.19C115.58,279.21,92.72,289.38,67.57,295.68Z"/></g></g></svg>