<svg xmlns="http://www.w3.org/2000/svg" viewBox="0 0 383.8 406.49"><defs><style>.cls-1{fill:#fff;}</style></defs><g id="Layer_2" data-name="Layer 2"><g id="Layer_4" data-name="Layer 4"><path class="cls-1" d="M383.56,371.66c-1.29-10.38-2.63-20.75-3.95-31.13q-3-23.46-6-46.91-3.54-27.47-7.13-54.92c-1.86-14.46-3.64-28.93-5.5-43.39-1.7-13.2-3.5-26.38-5.16-39.59-1.45-11.47-2.67-23-4.16-34.45-2.06-15.84-15.66-27.49-32-27.57-9.08,0-18.15,0-27.23,0h-4.22c-.68-25.55-9.5-47.63-27.75-65.74S219.63.45,193.66,0c-24-.4-45.56,7.1-63.82,22.59-22,18.63-32.92,42.45-33.63,71.11-3.37,0-6.44,0-9.51,0-9,.12-18-.22-26.94.52C46.47,95.36,34.9,106.42,32.9,119.37c-1.55,10-2.7,20.1-4,30.16Q24,187,19.22,224.48q-5,38.53-10.06,77Q5.47,329.94,1.9,358.37c-.75,6-2,12-1.89,17.93.44,17,14.79,30.19,32.14,30.19q159.45,0,318.92,0a37.14,37.14,0,0,0,8.4-1C375.19,401.79,385.51,387.24,383.56,371.66ZM157.23,41.41c22.41-14,45.84-14.26,68.55-.82,20,11.82,29.57,30.06,30.6,53H128C128.83,71.25,138.09,53.38,157.23,41.41Zm-126.87,334c.62-4.79,1.18-9.33,1.75-13.86q2.36-18.28,4.75-36.56c1.56-12,3.19-24,4.74-36,1.69-13.13,3.28-26.26,5-39.39,1.54-12,3.2-24,4.76-36,2-15.4,3.91-30.8,5.89-46.2C59,153.85,60.73,140.42,62.43,127c.17-1.24.37-2.06,2-2,9.72.06,19.46,0,29.17,0H94.8v3c0,13,0,36.26,0,49.54a10,10,0,0,0,10,10l12,0a10,10,0,0,0,10-9.78L128,124.93c40.8,0,126.9.08,126.9.08s0,34.8,0,52.46a10,10,0,0,0,10,10h11.77a10,10,0,0,0,10-10V125.24c1-.07,1.79-.17,2.54-.17,8.93,0,17.83.05,26.75,0,1.94,0,2.65.57,2.89,2.47q5,39.74,10.18,79.45c2.34,18.23,4.6,36.47,6.93,54.7q3.36,26.4,6.78,52.8,3.18,24.63,6.36,49.27c.5,3.82,1.05,7.64,1.61,11.67Z"/></g></g></svg>