<svg xmlns="http://www.w3.org/2000/svg" viewBox="0 0 178.52 128.95"><defs><style>.cls-1{fill:#fff;}.cls-2{fill:#66ffce;}</style></defs><g id="Layer_2" data-name="Layer 2"><g id="lgog"><path class="cls-1" d="M80.14,102.55,78,104.31l-.76.64-.88.74-1.13.94-.38.33-5.68,4.75a67.71,67.71,0,0,1-15.11,9.54,66.39,66.39,0,0,1-16.57,4.64,67.69,67.69,0,0,1-17.86.29A57.26,57.26,0,0,1,0,120.47,57.59,57.59,0,0,1,13.34,105a68.55,68.55,0,0,1,15.13-9.52,67.13,67.13,0,0,1,16.42-5.16A67,67,0,0,1,62.76,90l7.34.88.5.06,1.47.18,1.12.13,1,.12c.91.12,1.83.23,2.73.33,0,.13,0,.27,0,.4s-.06.52-.07.77a1.83,1.83,0,0,0,0,.33.17.17,0,0,0,0,.1,0,0,0,0,0,0,0,8.51,8.51,0,0,0,0,1c0,.23,0,.46,0,.69s.05.46.09.69a4.37,4.37,0,0,0,.09.5c0,.25.1.5.17.75a2.14,2.14,0,0,0,.09.34l.06.2a.58.58,0,0,0,.05.14.43.43,0,0,0,0,.16.35.35,0,0,0,0,.11,2.83,2.83,0,0,0,.11.31c.06.17.12.34.19.5s.13.3.2.44a5.12,5.12,0,0,0,.25.53,12.67,12.67,0,0,0,1.26,2l.29.36q.16.21.36.42Z"/><path class="cls-1" d="M83.75,82.18a12.12,12.12,0,0,0-2.42,1.64c-.12.1-.24.2-.35.31a2.76,2.76,0,0,0-.3.29c-.2.19-.39.39-.57.59a6.57,6.57,0,0,0-.48.57,9,9,0,0,0-.64.88,8,8,0,0,0-.43.69,11.34,11.34,0,0,0-1,2.21c-.09.22-.16.44-.23.66a7.32,7.32,0,0,0-.26,1,.83.83,0,0,0,0,.15l-2.68-.63-1-.23-1.11-.26-1.43-.34-.49-.11L63.13,88a67.48,67.48,0,0,1-16.7-6.36A66.82,66.82,0,0,1,32.77,71.11,68.15,68.15,0,0,1,21.84,57a57.46,57.46,0,0,1-7.21-19.14,57.16,57.16,0,0,1,20.42,1.38,67.79,67.79,0,0,1,16.67,6.4,66.11,66.11,0,0,1,14,10.05A67.57,67.57,0,0,1,76.61,69.82l3.7,6.42.25.43.73,1.27.57,1c.17.29.34.58.5.87C82.82,80.59,83.28,81.39,83.75,82.18Z"/><path class="cls-1" d="M178.52,123.88a56.8,56.8,0,0,1-19.88,4.88,67.57,67.57,0,0,1-17.82-1,66,66,0,0,1-16.36-5.33,67.84,67.84,0,0,1-14.7-10.17l-5.3-4.84-.37-.33-1.26-1.15-.67-.61-.74-.68-2-1.85A13.69,13.69,0,0,0,102.88,92l2.71-.21,1-.08,1.17-.09,1.45-.11.49,0,7.41-.58a67.7,67.7,0,0,1,17.84,1,67.3,67.3,0,0,1,16.19,5.85,68.39,68.39,0,0,1,14.71,10.15A57.41,57.41,0,0,1,178.52,123.88Z"/><path class="cls-1" d="M105.83,51.52a67.7,67.7,0,0,1-4.74,17.23L98.18,75.6l-.2.47-.56,1.31c-.16.37-.31.73-.47,1.09l-.39.92c-.36.83-.71,1.66-1,2.5a13.06,13.06,0,0,0-9.92-.51l-.46.17a2.88,2.88,0,0,0-.45.19l-.45.2c-.36-.84-.73-1.68-1.1-2.52-.14-.31-.27-.61-.4-.92s-.31-.69-.46-1l-.6-1.36-.2-.45-3-6.77a67.6,67.6,0,0,1-5-17.16,66.62,66.62,0,0,1,.17-17.22,67.79,67.79,0,0,1,4.71-17.24A57.31,57.31,0,0,1,89.34,0s0,0,0,0,0,0,0,0a57,57,0,0,1,11.14,17.1,67.24,67.24,0,0,1,4.91,17.18A66.06,66.06,0,0,1,105.83,51.52Z"/><path class="cls-1" d="M165.09,37.84A57.46,57.46,0,0,1,157.89,57,68.53,68.53,0,0,1,147,71.11,66.55,66.55,0,0,1,133.29,81.6,67.56,67.56,0,0,1,116.6,88l-7.2,1.69-.48.11-1.45.34-1.1.26-1,.23-2.68.63c0-.28-.12-.55-.19-.82a10.79,10.79,0,0,0-.36-1.14c0-.13-.1-.27-.15-.4a13,13,0,0,0-2-3.35l-.26-.31-.06-.07-.3-.33-.56-.57-.49-.43-.56-.45c-.19-.15-.39-.29-.59-.43q-.59-.39-1.2-.72l0,0,1.38-2.38.5-.87.57-1,.73-1.27.25-.43,3.71-6.42A67.54,67.54,0,0,1,114,55.67a66.62,66.62,0,0,1,14-10.05,67.79,67.79,0,0,1,16.67-6.4A57.2,57.2,0,0,1,165.09,37.84Z"/><path class="cls-2" d="M83.81,74.74c-.38.11-.76.25-1.15.4a5.32,5.32,0,0,0-.69.3c-.16.06-.33.14-.5.22l.2.45.5-.22c.23-.1.44-.2.66-.28.39-.15.76-.28,1.13-.4a19.57,19.57,0,0,1,5.93-.93A19.21,19.21,0,0,1,98,76.07l.2-.47A19.76,19.76,0,0,0,83.81,74.74Zm-3.5,1.5a18.44,18.44,0,0,0-1.63,1,20.4,20.4,0,0,0-1.82,1.4,6.11,6.11,0,0,0-.53.47c-.16.14-.31.29-.46.44s-.57.56-.87.9c-.17.18-.33.38-.49.57l-.25.3a20.58,20.58,0,0,0-3.27,6c0,.13-.09.26-.13.39l-.13.39c-.15.52-.28,1-.4,1.59l.49.11c.11-.53.23-1,.38-1.55,0-.13.09-.26.13-.39s.09-.25.13-.38a20,20,0,0,1,3.19-5.83l.25-.3c.15-.19.31-.38.47-.55.3-.33.57-.62.85-.88a6.25,6.25,0,0,1,.45-.44c.16-.16.33-.3.51-.45A21,21,0,0,1,79,77.62a17.32,17.32,0,0,1,1.6-1ZM74.4,105.6a19.73,19.73,0,0,1-1.87-3,20.41,20.41,0,0,1-1.22-3,18.4,18.4,0,0,1-.56-2.2l-.14-.74a19.24,19.24,0,0,1-.07-5.36L70.6,91l-.5-.06-.06.37a19.55,19.55,0,0,0,.08,5.51l.14.76a19.15,19.15,0,0,0,.58,2.25,20.76,20.76,0,0,0,1.24,3,20,20,0,0,0,1.92,3l.44.54c.13.17.28.34.43.51l.38-.33a6.4,6.4,0,0,1-.42-.49Zm35.3-14.1s0,0,0-.08l-.49,0s0,.07,0,.1c.07.65.12,1.31.13,2a19.58,19.58,0,0,1-5.25,13.51l.37.33a20,20,0,0,0,5.38-13.55v-.3C109.82,92.85,109.78,92.17,109.7,91.5Zm-.53-2.86a16,16,0,0,0-.55-1.74l-.23-.61a20,20,0,0,0-3-5.1,5.83,5.83,0,0,0-.44-.52.22.22,0,0,0-.06-.07l-.14-.16c-.1-.12-.21-.24-.31-.34-.27-.28-.54-.56-.86-.87l-.25-.22-.49-.43-.85-.69c-.29-.22-.59-.44-.91-.65a15.55,15.55,0,0,0-1.66-1l-.25.43c.56.3,1.11.63,1.64,1,.29.21.59.42.87.64l.84.67.48.42.27.24.81.83.3.32.18.21,0,.06c.13.15.26.29.39.46a19.73,19.73,0,0,1,2.94,5l.22.6a15.84,15.84,0,0,1,.54,1.69c.08.34.16.67.23,1l.48-.11C109.33,89.32,109.26,89,109.17,88.64Z"/><path class="cls-2" d="M84.76,77.7c-.34.1-.67.22-1,.34a4.4,4.4,0,0,0-.58.25l-.48.21c.13.31.26.61.4.92a5.11,5.11,0,0,1,.47-.21,5.48,5.48,0,0,1,.54-.23c.3-.12.6-.23.91-.33a16.13,16.13,0,0,1,4.84-.75,15.74,15.74,0,0,1,6.67,1.49l.39-.92A16.73,16.73,0,0,0,84.76,77.7Zm-2.9,1.23a16.6,16.6,0,0,0-1.44.86A16.82,16.82,0,0,0,78.89,81c-.16.14-.32.27-.45.4s-.27.25-.39.38-.5.5-.74.76L76.9,83l-.21.25a17.39,17.39,0,0,0-2.76,5.05l-.22.66c-.14.46-.25.93-.35,1.41l1,.23c.1-.45.21-.9.33-1.33l.21-.64a16.29,16.29,0,0,1,2.6-4.75l.2-.24c.13-.16.26-.32.39-.46s.44-.48.69-.72.24-.24.38-.36a3.64,3.64,0,0,1,.41-.36A15.8,15.8,0,0,1,81,80.62c.42-.28.88-.55,1.38-.82C82.2,79.51,82,79.22,81.86,78.93Zm-4.59,24.48A14.89,14.89,0,0,1,75.75,101a15.76,15.76,0,0,1-1-2.43,13.93,13.93,0,0,1-.45-1.78l-.12-.61a15.92,15.92,0,0,1-.06-4.36l.06-.4-1-.12-.06.38a16.53,16.53,0,0,0,.07,4.66l.11.64a17.9,17.9,0,0,0,.49,1.9,17.57,17.57,0,0,0,1,2.57A17.13,17.13,0,0,0,76.47,104l.37.46c.14.17.28.34.42.48l.76-.64a5.3,5.3,0,0,1-.41-.49C77.49,103.69,77.38,103.55,77.27,103.41Zm29.34-11.55,0-.2-1,.08,0,.23c.06.53.1,1.07.11,1.61a16,16,0,0,1-4.31,11l.74.68a16.92,16.92,0,0,0,4.57-11.72h0C106.71,93,106.68,92.42,106.61,91.86Zm-.45-2.42A14.92,14.92,0,0,0,105.7,88l-.19-.5A16.31,16.31,0,0,0,103,83.17a4.94,4.94,0,0,0-.36-.44l-.19-.21-.26-.29-.73-.75-.21-.17a5,5,0,0,0-.42-.37c-.21-.18-.44-.36-.71-.57s-.5-.37-.76-.56c-.48-.31-1-.62-1.47-.88l-.5.87c.48.25,1,.54,1.4.83.24.17.49.34.75.55l.66.53.39.34.18.16c.24.24.47.47.7.72a2.84,2.84,0,0,1,.23.25l.2.23a3.84,3.84,0,0,1,.31.36,15.59,15.59,0,0,1,2.39,4l.19.5a12.13,12.13,0,0,1,.43,1.37q.12.45.21.9l1-.23C106.31,90.06,106.24,89.75,106.16,89.44Z"/></g></g></svg>